<svg width="150" height="150" viewBox="0 0 150 150" fill="none" xmlns="http://www.w3.org/2000/svg">
<g clip-path="url(#clip0_1249_553)">
<circle cx="75" cy="75" r="75" fill="#D8D8D8"/>
<path d="M40.0625 42.75C35.6113 42.75 32 46.3613 32 50.8125C32 53.3488 33.1926 55.734 35.225 57.2625L71.775 84.675C73.6898 86.1027 76.3102 86.1027 78.225 84.675L114.775 57.2625C116.807 55.734 118 53.3488 118 50.8125C118 46.3613 114.389 42.75 109.938 42.75H40.0625ZM32 61.5625V96.5C32 102.429 36.8207 107.25 42.75 107.25H107.25C113.179 107.25 118 102.429 118 96.5V61.5625L81.45 88.975C77.6203 91.8473 72.3797 91.8473 68.55 88.975L32 61.5625Z" fill="#3F40CE"/>
</g>
<defs>
<clipPath id="clip0_1249_553">
<rect width="150" height="150" fill="white"/>
</clipPath>
</defs>
</svg>
