<svg width="150" height="150" viewBox="0 0 150 150" fill="none" xmlns="http://www.w3.org/2000/svg">
<g clip-path="url(#clip0_1249_549)">
<circle cx="75" cy="75" r="75" fill="#D8D8D8"/>
<path d="M42.75 50.8125C41.2719 50.8125 40.0625 52.0219 40.0625 53.5V57.2121L69.0371 80.9965C72.5141 83.852 77.5027 83.852 80.9797 80.9965L109.937 57.2121V53.5C109.937 52.0219 108.728 50.8125 107.25 50.8125H42.75ZM40.0625 67.643V96.5C40.0625 97.9781 41.2719 99.1875 42.75 99.1875H107.25C108.728 99.1875 109.937 97.9781 109.937 96.5V67.643L86.0859 87.2281C79.6359 92.5191 70.3473 92.5191 63.9141 87.2281L40.0625 67.643ZM32 53.5C32 47.5707 36.8207 42.75 42.75 42.75H107.25C113.179 42.75 118 47.5707 118 53.5V96.5C118 102.429 113.179 107.25 107.25 107.25H42.75C36.8207 107.25 32 102.429 32 96.5V53.5Z" fill="#1D1D1D"/>
</g>
<defs>
<clipPath id="clip0_1249_549">
<rect width="150" height="150" fill="white"/>
</clipPath>
</defs>
</svg>
